<svg viewBox="0 0 800 450" xmlns="http://www.w3.org/2000/svg">
  <rect width="800" height="300" fill="#f4ede1"/>
  <rect y="300" width="800" height="150" fill="#8a8378"/>

  <path d="M50 340 L120 335 L100 360 L180 355" stroke="#6b6459" stroke-width="3" fill="none"/>
  <path d="M500 400 L560 390 L540 420 L620 410" stroke="#6b6459" stroke-width="3" fill="none"/>
  <line x1="0" y1="378" x2="800" y2="378" stroke="#e8dcc8" stroke-width="4" stroke-dasharray="30,20"/>

  <rect x="230" y="150" width="340" height="180" fill="#b5573a" stroke="#8a3f28" stroke-width="4"/>
  <g stroke="#8a3f28" stroke-width="2">
    <line x1="250" y1="150" x2="250" y2="330"/>
    <line x1="270" y1="150" x2="270" y2="330"/>
    <line x1="290" y1="150" x2="290" y2="330"/>
    <line x1="310" y1="150" x2="310" y2="330"/>
    <line x1="330" y1="150" x2="330" y2="330"/>
    <line x1="350" y1="150" x2="350" y2="330"/>
    <line x1="370" y1="150" x2="370" y2="330"/>
    <line x1="390" y1="150" x2="390" y2="330"/>
    <line x1="410" y1="150" x2="410" y2="330"/>
    <line x1="430" y1="150" x2="430" y2="330"/>
    <line x1="450" y1="150" x2="450" y2="330"/>
    <line x1="470" y1="150" x2="470" y2="330"/>
    <line x1="490" y1="150" x2="490" y2="330"/>
    <line x1="510" y1="150" x2="510" y2="330"/>
    <line x1="530" y1="150" x2="530" y2="330"/>
    <line x1="550" y1="150" x2="550" y2="330"/>
  </g>

  <rect x="270" y="200" width="80" height="130" fill="#3b2a20"/>
  <rect x="380" y="210" width="120" height="80" fill="#cfe3e8" stroke="#3b2a20" stroke-width="4"/>
  <line x1="440" y1="210" x2="440" y2="290" stroke="#3b2a20" stroke-width="3"/>

  <rect x="330" y="118" width="150" height="36" fill="#3b2a20" rx="4"/>
  <text x="405" y="142" font-family="Georgia, serif" font-size="18" fill="#f4ede1" text-anchor="middle">COFFEE</text>

  <path d="M400 100 Q410 85 400 70 Q390 55 400 40" stroke="#c9b8a3" stroke-width="4" fill="none" stroke-linecap="round" opacity="0.7"/>
  <path d="M430 100 Q440 85 430 70 Q420 55 430 40" stroke="#c9b8a3" stroke-width="4" fill="none" stroke-linecap="round" opacity="0.7"/>

  <circle cx="260" cy="180" r="6" fill="#6b3520" opacity="0.6"/>
  <circle cx="520" cy="250" r="8" fill="#6b3520" opacity="0.6"/>

  <line x1="670" y1="330" x2="670" y2="180" stroke="#5a5a5a" stroke-width="6"/>
  <path d="M670 180 L710 175" stroke="#5a5a5a" stroke-width="6" fill="none"/>
  <circle cx="710" cy="178" r="10" fill="#d8d0b8" opacity="0.5"/>
</svg>
